<svg xmlns="http://www.w3.org/2000/svg" width="25" height="25" viewBox="0 0 25 25">
  <metadata><?xpacket begin="﻿" id="W5M0MpCehiHzreSzNTczkc9d"?>
<x:xmpmeta xmlns:x="adobe:ns:meta/" x:xmptk="Adobe XMP Core 5.6-c138 79.159824, 2016/09/14-01:09:01        ">
   <rdf:RDF xmlns:rdf="http://www.w3.org/1999/02/22-rdf-syntax-ns#">
      <rdf:Description rdf:about=""/>
   </rdf:RDF>
</x:xmpmeta>
                                                                                                    
                                                                                                    
                                                                                                    
                                                                                                    
                                                                                                    
                                                                                                    
                                                                                                    
                                                                                                    
                                                                                                    
                                                                                                    
                                                                                                    
                                                                                                    
                                                                                                    
                                                                                                    
                                                                                                    
                                                                                                    
                                                                                                    
                                                                                                    
                                                                                                    
                                                                                                    
                           
<?xpacket end="w"?></metadata>
<defs>
    <style>
      .cls-1 {
        fill: #1e88e5;
        fill-rule: evenodd;
      }
    </style>
  </defs>
  <path class="cls-1" d="M1119.81,63.479a2.476,2.476,0,0,0-1.79-.818,2.546,2.546,0,0,0-1.81.813l-1.68,1.663c-0.13-.074-0.27-0.143-0.4-0.211-0.19-.095-0.37-0.185-0.53-0.28a18.2,18.2,0,0,1-4.36-3.96,11.077,11.077,0,0,1-1.43-2.249c0.44-.4.84-0.808,1.23-1.2,0.15-.148.3-0.3,0.45-0.449a2.421,2.421,0,0,0,0-3.654l-1.45-1.442c-0.16-.164-0.33-0.333-0.49-0.5-0.32-.327-0.65-0.666-1-0.982a2.488,2.488,0,0,0-1.77-.776,2.59,2.59,0,0,0-1.8.776c-0.01.005-.01,0.005-0.01,0.011l-1.8,1.811a3.826,3.826,0,0,0-1.15,2.456,9.179,9.179,0,0,0,.68,3.918,22.8,22.8,0,0,0,4.05,6.738,24.9,24.9,0,0,0,8.3,6.479,12.885,12.885,0,0,0,4.66,1.373c0.11,0.005.22,0.01,0.33,0.01a4.017,4.017,0,0,0,3.06-1.309,0.047,0.047,0,0,1,.02-0.026,11.6,11.6,0,0,1,.92-0.956q0.345-.324.69-0.681a2.607,2.607,0,0,0,.8-1.827,2.547,2.547,0,0,0-.81-1.811Zm1.89,5.56h0c-0.2.222-.41,0.423-0.64,0.644a11.626,11.626,0,0,0-1.02,1.056,2.57,2.57,0,0,1-1.99.84c-0.08,0-.17,0-0.25-0.005a11.548,11.548,0,0,1-4.13-1.236,23.393,23.393,0,0,1-7.81-6.1,21.376,21.376,0,0,1-3.82-6.331,7.541,7.541,0,0,1-.59-3.306,2.4,2.4,0,0,1,.73-1.568l1.81-1.8a1.2,1.2,0,0,1,.8-0.375,1.136,1.136,0,0,1,.77.37c0.01,0.005.01,0.01,0.02,0.016,0.32,0.3.63,0.613,0.95,0.946,0.17,0.169.34,0.338,0.51,0.512l1.44,1.442a1.008,1.008,0,0,1,0,1.637c-0.15.153-.3,0.306-0.45,0.454-0.45.454-.87,0.877-1.33,1.289-0.01.01-.02,0.016-0.03,0.026a1.073,1.073,0,0,0-.27,1.2c0,0.016.01,0.032,0.01,0.047a11.861,11.861,0,0,0,1.71,2.783l0.01,0.005a19.381,19.381,0,0,0,4.7,4.267c0.22,0.137.44,0.248,0.65,0.354,0.19,0.1.37,0.185,0.52,0.28a0.446,0.446,0,0,1,.07.037,1.085,1.085,0,0,0,1.33-.232l1.81-1.806a1.187,1.187,0,0,1,.8-0.4,1.061,1.061,0,0,1,.76.385c0.01,0.005.01,0.005,0.01,0.01l2.92,2.91A1.046,1.046,0,0,1,1121.7,69.039Zm-8.16-15.108a6.819,6.819,0,0,1,5.55,5.534,0.71,0.71,0,0,0,.7.591,0.935,0.935,0,0,0,.12-0.011,0.7,0.7,0,0,0,.59-0.824,8.222,8.222,0,0,0-6.71-6.7,0.724,0.724,0,0,0-.83.581A0.708,0.708,0,0,0,1113.54,53.931Zm11.5,5.085a13.564,13.564,0,0,0-11.06-11.026,0.712,0.712,0,1,0-.23,1.405,12.093,12.093,0,0,1,9.88,9.854,0.713,0.713,0,0,0,.71.591,0.917,0.917,0,0,0,.12-0.011A0.7,0.7,0,0,0,1125.04,59.017Z" transform="translate(-1100.03 -48)"/>
</svg>
