<svg xmlns="http://www.w3.org/2000/svg" width="50" height="50" viewBox="0 0 50 50">
  <metadata><?xpacket begin="﻿" id="W5M0MpCehiHzreSzNTczkc9d"?>
<x:xmpmeta xmlns:x="adobe:ns:meta/" x:xmptk="Adobe XMP Core 5.6-c138 79.159824, 2016/09/14-01:09:01        ">
   <rdf:RDF xmlns:rdf="http://www.w3.org/1999/02/22-rdf-syntax-ns#">
      <rdf:Description rdf:about=""/>
   </rdf:RDF>
</x:xmpmeta>
                                                                                                    
                                                                                                    
                                                                                                    
                                                                                                    
                                                                                                    
                                                                                                    
                                                                                                    
                                                                                                    
                                                                                                    
                                                                                                    
                                                                                                    
                                                                                                    
                                                                                                    
                                                                                                    
                                                                                                    
                                                                                                    
                                                                                                    
                                                                                                    
                                                                                                    
                                                                                                    
                           
<?xpacket end="w"?></metadata>
<defs>
    <style>
      .cls-1 {
        fill: #ffbe4c;
        fill-rule: evenodd;
      }
    </style>
  </defs>
  <path id="Shape_1_копия_2" data-name="Shape 1 копия 2" class="cls-1" d="M509.441,1966.75l-3.509-.59a20.072,20.072,0,0,0-1.41-3.41l2.068-2.89a3.079,3.079,0,0,0-.335-3.98l-3.112-3.11a3.047,3.047,0,0,0-2.183-.91,3,3,0,0,0-1.786.57l-2.9,2.07a18.885,18.885,0,0,0-3.53-1.45l-0.585-3.47a3.09,3.09,0,0,0-3.05-2.58h-4.4a3.09,3.09,0,0,0-3.05,2.58l-0.606,3.55a20.07,20.07,0,0,0-3.394,1.43l-2.873-2.07a3.1,3.1,0,0,0-1.8-.57,3.028,3.028,0,0,0-2.183.91l-3.123,3.11a3.092,3.092,0,0,0-.334,3.98l2.089,2.93a19.54,19.54,0,0,0-1.39,3.42l-3.467.59a3.081,3.081,0,0,0-2.58,3.05v4.39a3.081,3.081,0,0,0,2.58,3.05l3.551,0.61a19.107,19.107,0,0,0,1.431,3.39l-2.058,2.86a3.08,3.08,0,0,0,.334,3.98l3.113,3.12a3.088,3.088,0,0,0,2.183.91,3.011,3.011,0,0,0,1.786-.58l2.935-2.09a18.828,18.828,0,0,0,3.3,1.36l0.585,3.51a3.089,3.089,0,0,0,3.05,2.58H489.2a3.09,3.09,0,0,0,3.05-2.58l0.595-3.51a20.551,20.551,0,0,0,3.405-1.41l2.893,2.07a3.107,3.107,0,0,0,1.8.57h0a3.047,3.047,0,0,0,2.183-.91l3.113-3.11a3.093,3.093,0,0,0,.334-3.98l-2.068-2.9a19.851,19.851,0,0,0,1.41-3.41l3.509-.58a3.088,3.088,0,0,0,2.58-3.05v-4.4A3.051,3.051,0,0,0,509.441,1966.75Zm-0.24,7.45a0.273,0.273,0,0,1-.23.27l-4.387.73a1.4,1.4,0,0,0-1.128,1.03,16.7,16.7,0,0,1-1.817,4.38,1.42,1.42,0,0,0,.063,1.54l2.579,3.63a0.29,0.29,0,0,1-.031.36l-3.113,3.11a0.271,0.271,0,0,1-.2.08,0.265,0.265,0,0,1-.157-0.05l-3.624-2.58a1.424,1.424,0,0,0-1.536-.06,17,17,0,0,1-4.376,1.82,1.373,1.373,0,0,0-1.034,1.12l-0.742,4.39a0.267,0.267,0,0,1-.271.23h-4.4a0.267,0.267,0,0,1-.271-0.23l-0.731-4.39a1.39,1.39,0,0,0-1.034-1.12,17.622,17.622,0,0,1-4.283-1.76,1.506,1.506,0,0,0-.71-0.19,1.429,1.429,0,0,0-.815.26l-3.656,2.6a0.255,0.255,0,0,1-.156.06,0.265,0.265,0,0,1-.2-0.09l-3.112-3.11a0.275,0.275,0,0,1-.032-0.35l2.57-3.61a1.422,1.422,0,0,0,.062-1.54,16.581,16.581,0,0,1-1.838-4.37,1.424,1.424,0,0,0-1.128-1.03l-4.418-.76a0.265,0.265,0,0,1-.23-0.27v-4.39a0.275,0.275,0,0,1,.23-0.28l4.355-.73a1.406,1.406,0,0,0,1.139-1.04,16.677,16.677,0,0,1,1.786-4.39,1.386,1.386,0,0,0-.073-1.52l-2.6-3.66a0.277,0.277,0,0,1,.031-0.35l3.113-3.12a0.271,0.271,0,0,1,.2-0.08,0.265,0.265,0,0,1,.157.05l3.6,2.57a1.42,1.42,0,0,0,1.545.06,16.476,16.476,0,0,1,4.366-1.83,1.443,1.443,0,0,0,1.035-1.13l0.752-4.42a0.266,0.266,0,0,1,.271-0.23h4.4a0.267,0.267,0,0,1,.271.23l0.731,4.35a1.4,1.4,0,0,0,1.045,1.14,17.247,17.247,0,0,1,4.481,1.84,1.423,1.423,0,0,0,1.535-.06l3.6-2.59a0.318,0.318,0,0,1,.156-0.05,0.287,0.287,0,0,1,.2.08l3.113,3.11a0.29,0.29,0,0,1,.031.36l-2.58,3.62a1.419,1.419,0,0,0-.063,1.54,16.775,16.775,0,0,1,1.818,4.37,1.393,1.393,0,0,0,1.128,1.04l4.387,0.74a0.266,0.266,0,0,1,.23.27v4.4H509.2Zm-22.2-13a10.79,10.79,0,1,0,10.79,10.79A10.8,10.8,0,0,0,487.005,1961.2Zm0,18.76a7.97,7.97,0,1,1,7.97-7.97A7.973,7.973,0,0,1,487.005,1979.96Z" transform="translate(-462 -1947)"/>
</svg>
