<svg xmlns="http://www.w3.org/2000/svg" width="40" height="46" viewBox="0 0 40 46">
  <metadata><?xpacket begin="﻿" id="W5M0MpCehiHzreSzNTczkc9d"?>
<x:xmpmeta xmlns:x="adobe:ns:meta/" x:xmptk="Adobe XMP Core 5.6-c138 79.159824, 2016/09/14-01:09:01        ">
   <rdf:RDF xmlns:rdf="http://www.w3.org/1999/02/22-rdf-syntax-ns#">
      <rdf:Description rdf:about=""/>
   </rdf:RDF>
</x:xmpmeta>
                                                                                                    
                                                                                                    
                                                                                                    
                                                                                                    
                                                                                                    
                                                                                                    
                                                                                                    
                                                                                                    
                                                                                                    
                                                                                                    
                                                                                                    
                                                                                                    
                                                                                                    
                                                                                                    
                                                                                                    
                                                                                                    
                                                                                                    
                                                                                                    
                                                                                                    
                                                                                                    
                           
<?xpacket end="w"?></metadata>
<defs>
    <style>
      .cls-1 {
        fill: #ffbe4c;
        fill-rule: evenodd;
      }
    </style>
  </defs>
  <path class="cls-1" d="M487.817,1676.79h0.312a9.072,9.072,0,0,0,6.861-2.91c3.746-4.13,3.123-11.22,3.055-11.9-0.243-5.07-2.695-7.5-4.72-8.64a11,11,0,0,0-5.235-1.34h-0.166a11.054,11.054,0,0,0-5.236,1.3c-2.043,1.14-4.535,3.57-4.778,8.68-0.068.68-.691,7.77,3.056,11.9A9.033,9.033,0,0,0,487.817,1676.79Zm-7.309-14.57c0-.03.01-0.06,0.01-0.08,0.321-6.83,5.275-7.56,7.4-7.56h0.116c2.628,0.06,7.095,1.11,7.4,7.56a0.215,0.215,0,0,0,.009.08c0.01,0.07.691,6.55-2.4,9.96a6.451,6.451,0,0,1-5.011,2.03h-0.1a6.43,6.43,0,0,1-5-2.03C479.837,1668.78,480.5,1662.28,480.508,1662.22Zm27.464,26.32v-0.03c0-.07-0.01-0.15-0.01-0.24-0.058-1.88-.185-6.29-4.408-7.7l-0.1-.03a28.45,28.45,0,0,1-8.077-3.6,1.331,1.331,0,0,0-1.83.31,1.268,1.268,0,0,0,.321,1.79,30.37,30.37,0,0,0,8.886,3.98c2.267,0.79,2.52,3.16,2.588,5.33a1.848,1.848,0,0,0,.01.24,16.8,16.8,0,0,1-.2,2.94,39.576,39.576,0,0,1-34.325-.01,15.89,15.89,0,0,1-.2-2.94c0-.08.009-0.15,0.009-0.24,0.069-2.17.322-4.54,2.589-5.33a30.637,30.637,0,0,0,8.885-3.98,1.267,1.267,0,0,0,.322-1.79,1.331,1.331,0,0,0-1.83-.31,28.144,28.144,0,0,1-8.077,3.6c-0.039.01-.069,0.02-0.1,0.03-4.224,1.42-4.35,5.83-4.408,7.7a1.772,1.772,0,0,1-.01.24v0.03a14.319,14.319,0,0,0,.5,4.32,1.3,1.3,0,0,0,.506.6c0.292,0.19,7.29,4.55,19,4.55s18.7-4.37,19-4.55a1.353,1.353,0,0,0,.506-0.6A15.047,15.047,0,0,0,507.972,1688.54Z" transform="translate(-468 -1652)"/>
</svg>
