<svg xmlns="http://www.w3.org/2000/svg" width="47" height="47" viewBox="0 0 47 47">
  <metadata><?xpacket begin="﻿" id="W5M0MpCehiHzreSzNTczkc9d"?>
<x:xmpmeta xmlns:x="adobe:ns:meta/" x:xmptk="Adobe XMP Core 5.6-c138 79.159824, 2016/09/14-01:09:01        ">
   <rdf:RDF xmlns:rdf="http://www.w3.org/1999/02/22-rdf-syntax-ns#">
      <rdf:Description rdf:about=""/>
   </rdf:RDF>
</x:xmpmeta>
                                                                                                    
                                                                                                    
                                                                                                    
                                                                                                    
                                                                                                    
                                                                                                    
                                                                                                    
                                                                                                    
                                                                                                    
                                                                                                    
                                                                                                    
                                                                                                    
                                                                                                    
                                                                                                    
                                                                                                    
                                                                                                    
                                                                                                    
                                                                                                    
                                                                                                    
                                                                                                    
                           
<?xpacket end="w"?></metadata>
<defs>
    <style>
      .cls-1 {
        fill: #ffbe4c;
        fill-rule: evenodd;
      }
    </style>
  </defs>
  <path id="Forma_1" data-name="Forma 1" class="cls-1" d="M1457.12,1962.35a23.158,23.158,0,1,0,1.88,9.12A22.967,22.967,0,0,0,1457.12,1962.35Zm-3.75,19.51a20.5,20.5,0,0,1-7.55,7.53,20.58,20.58,0,0,1-18.38,1.14,20.273,20.273,0,0,1-10.97-11.01,20.791,20.791,0,0,1,1.13-18.38,20.6,20.6,0,0,1,7.53-7.53,20.01,20.01,0,0,1,10.33-2.78,20.214,20.214,0,0,1,10.36,2.78,20.653,20.653,0,0,1,7.55,7.53A20.694,20.694,0,0,1,1453.37,1981.86Zm-16.42-10.59v-13.32a1.477,1.477,0,0,0-1.49-1.44,1.448,1.448,0,0,0-1.41,1.44v13.52a1.305,1.305,0,0,1,.05.21,1.38,1.38,0,0,0,.38,1.16l7.69,7.68a1.452,1.452,0,0,0,1.98,0,1.383,1.383,0,0,0,0-2Z" transform="translate(-1412 -1948)"/>
</svg>
