<svg xmlns="http://www.w3.org/2000/svg" width="40" height="40" viewBox="0 0 40 40">
  <metadata><?xpacket begin="﻿" id="W5M0MpCehiHzreSzNTczkc9d"?>
<x:xmpmeta xmlns:x="adobe:ns:meta/" x:xmptk="Adobe XMP Core 5.6-c138 79.159824, 2016/09/14-01:09:01        ">
   <rdf:RDF xmlns:rdf="http://www.w3.org/1999/02/22-rdf-syntax-ns#">
      <rdf:Description rdf:about=""/>
   </rdf:RDF>
</x:xmpmeta>
                                                                                                    
                                                                                                    
                                                                                                    
                                                                                                    
                                                                                                    
                                                                                                    
                                                                                                    
                                                                                                    
                                                                                                    
                                                                                                    
                                                                                                    
                                                                                                    
                                                                                                    
                                                                                                    
                                                                                                    
                                                                                                    
                                                                                                    
                                                                                                    
                                                                                                    
                                                                                                    
                           
<?xpacket end="w"?></metadata>
<defs>
    <style>
      .cls-1 {
        fill: #ffbe4c;
        fill-rule: evenodd;
      }
    </style>
  </defs>
  <path class="cls-1" d="M974.8,1988.19a4.861,4.861,0,0,0,1.2-3.32,5,5,0,0,0-1.119-2.87,4.387,4.387,0,0,0-1.093-5.15c-1.368-1.21-3.691-1.76-6.909-1.6a27.734,27.734,0,0,0-4.234.52h-0.008c-0.431.08-.887,0.17-1.351,0.27a14.182,14.182,0,0,1,1.075-4.86c1.205-3.56,1.136-6.29-.223-8.11a5.533,5.533,0,0,0-4.38-2.07,2.182,2.182,0,0,0-1.661.74c-0.955,1.07-.843,3.07-0.723,3.99-1.136,2.96-4.319,10.22-7.013,12.23-0.051.04-.094,0.08-0.137,0.12a8.953,8.953,0,0,0-1.687,2.46,3.606,3.606,0,0,0-1.7-.42H939.58a3.537,3.537,0,0,0-3.58,3.48v13.59a3.53,3.53,0,0,0,3.58,3.48h5.248a3.652,3.652,0,0,0,2.066-.63l2.022,0.23a89.267,89.267,0,0,0,11.47.61c1.024,0.08,1.988.12,2.882,0.12a20.169,20.169,0,0,0,4-.35c2.633-.55,4.431-1.63,5.343-3.23a4.982,4.982,0,0,0,.585-3.2,5.273,5.273,0,0,0,1.954-4.35A5.612,5.612,0,0,0,974.8,1988.19Zm-35.219,10.23a1.248,1.248,0,0,1-1.257-1.23v-13.6a1.245,1.245,0,0,1,1.257-1.22h5.248a1.24,1.24,0,0,1,1.257,1.22v13.6a1.245,1.245,0,0,1-1.257,1.22H939.58v0.01Zm33.016-11.21a1.11,1.11,0,0,0-.155,1.37,3.4,3.4,0,0,1,.4,1.4,3.326,3.326,0,0,1-1.618,2.89,1.123,1.123,0,0,0-.4,1.29,2.884,2.884,0,0,1-.232,2.16c-0.576,1-1.858,1.72-3.8,2.12a22.81,22.81,0,0,1-6.273.18h-0.121a86.81,86.81,0,0,1-11.186-.59H949.2l-0.869-.1a3.5,3.5,0,0,0,.077-0.74v-13.6a3.376,3.376,0,0,0-.163-1.03,6.909,6.909,0,0,1,1.6-2.87c3.864-2.98,7.641-13.03,7.8-13.46a1.029,1.029,0,0,0,.052-0.56,5.109,5.109,0,0,1,.112-2.43,3.153,3.153,0,0,1,2.427,1.13c0.877,1.18.843,3.29-.1,6.08-1.445,4.26-1.566,6.5-.421,7.49a1.9,1.9,0,0,0,1.875.32c0.525-.11,1.025-0.21,1.5-0.29,0.034-.01.077-0.01,0.112-0.02,2.641-.56,7.374-0.91,9.017.55a2.35,2.35,0,0,1,.293,3.05,1.1,1.1,0,0,0,.206,1.46,3.122,3.122,0,0,1,.956,1.95A3.056,3.056,0,0,1,972.6,1987.21Z" transform="translate(-936 -1961)"/>
</svg>
