<svg xmlns="http://www.w3.org/2000/svg" width="49" height="49" viewBox="0 0 49 49">
  <metadata><?xpacket begin="﻿" id="W5M0MpCehiHzreSzNTczkc9d"?>
<x:xmpmeta xmlns:x="adobe:ns:meta/" x:xmptk="Adobe XMP Core 5.6-c138 79.159824, 2016/09/14-01:09:01        ">
   <rdf:RDF xmlns:rdf="http://www.w3.org/1999/02/22-rdf-syntax-ns#">
      <rdf:Description rdf:about=""/>
   </rdf:RDF>
</x:xmpmeta>
                                                                                                    
                                                                                                    
                                                                                                    
                                                                                                    
                                                                                                    
                                                                                                    
                                                                                                    
                                                                                                    
                                                                                                    
                                                                                                    
                                                                                                    
                                                                                                    
                                                                                                    
                                                                                                    
                                                                                                    
                                                                                                    
                                                                                                    
                                                                                                    
                                                                                                    
                                                                                                    
                           
<?xpacket end="w"?></metadata>
<defs>
    <style>
      .cls-1 {
        fill: #ffbe4c;
        fill-rule: evenodd;
      }
    </style>
  </defs>
  <path id="Shape_3_copy_копия_2" data-name="Shape 3 copy копия 2" class="cls-1" d="M1455.95,1692.97v-29.03c0-4.91-2.71-7.94-8.05-7.94h-28.11a1.013,1.013,0,0,0-.96,1.26l0.02,7.72h4.02v7.14h3.4v9.82h2.12v-9.82h3.19v-7.14h12.77v22.07h-27.11v5.93H1413v12.03h49v-12.04h-6.05Zm-26.74-23.27h-3.94v-4.72h3.94v4.72Zm-9.39,19.78h27.12v-27.12h-26.03c0-.63-0.06-3.13-0.06-3.61,0-.35.32-0.4,1.02-0.4l26.03,0.01a5.635,5.635,0,0,1,5.73,5.58v29.04h-33.8v-3.5h-0.01Zm39.31,13.08h-43.42v-6.84h43.42v6.84Z" transform="translate(-1413 -1656)"/>
</svg>
