<svg xmlns="http://www.w3.org/2000/svg" width="51" height="49" viewBox="0 0 51 49">
  <metadata><?xpacket begin="﻿" id="W5M0MpCehiHzreSzNTczkc9d"?>
<x:xmpmeta xmlns:x="adobe:ns:meta/" x:xmptk="Adobe XMP Core 5.6-c138 79.159824, 2016/09/14-01:09:01        ">
   <rdf:RDF xmlns:rdf="http://www.w3.org/1999/02/22-rdf-syntax-ns#">
      <rdf:Description rdf:about=""/>
   </rdf:RDF>
</x:xmpmeta>
                                                                                                    
                                                                                                    
                                                                                                    
                                                                                                    
                                                                                                    
                                                                                                    
                                                                                                    
                                                                                                    
                                                                                                    
                                                                                                    
                                                                                                    
                                                                                                    
                                                                                                    
                                                                                                    
                                                                                                    
                                                                                                    
                                                                                                    
                                                                                                    
                                                                                                    
                                                                                                    
                           
<?xpacket end="w"?></metadata>
<defs>
    <style>
      .cls-1 {
        fill: #ffbe4c;
        fill-rule: evenodd;
      }
    </style>
  </defs>
  <path class="cls-1" d="M988.814,1676.47l-10.715,4.49v-3.73a0.847,0.847,0,0,0-1.185-.76l-11.739,4.92H962.8v-6.34a1.994,1.994,0,0,0-2.021-1.97H958.02a1.994,1.994,0,0,0-2.02,1.97v6.34h-3.46l-1.642-21.66a0.839,0.839,0,0,0-.848-0.77h-5.1a0.839,0.839,0,0,0-.848.77l-1.642,21.66h-0.91a0.837,0.837,0,0,0-.845.74l-1.7,14.95a0.837,0.837,0,0,0,.845.92h49.3a0.839,0.839,0,0,0,.85-0.83v-19.94A0.847,0.847,0,0,0,988.814,1676.47Zm-31.114-1.42a0.316,0.316,0,0,1,.32-0.31h2.759a0.316,0.316,0,0,1,.321.31v6.34h-3.4v-6.34Zm-0.85,8h7.65v13.29h-8.589l-1.511-13.29h2.45Zm-11.11-22.43h3.521l1.574,20.77h-6.669Zm-3.428,22.43H952.69l0.672,5.91,0.839,7.38h-3.3v-5.82a0.839,0.839,0,0,0-.849-0.83h-5.1a0.839,0.839,0,0,0-.85.83v5.82h-3.3Zm3.489,13.29v-4.99h3.4v4.99h-3.4Zm20.4-13.58,10.2-4.27v17.85h-2.55v-4.99a0.845,0.845,0,0,0-.85-0.83h-3.4a0.845,0.845,0,0,0-.85.83v4.99H966.2v-13.58h0Zm4.249,13.58v-4.16h1.7v4.16h-1.7Zm13.6,0h-1.7v-4.16h1.7v4.16Zm4.249,0h-2.549v-4.99a0.846,0.846,0,0,0-.85-0.83h-3.4a0.845,0.845,0,0,0-.85.83v4.99H978.1v-13.58l10.2-4.27v17.85h0Zm-39.639-39.1c0.058-.02.174-0.06,0.339-0.12,0.279-.09.587-0.18,0.913-0.27a11.256,11.256,0,0,1,1.942-.36c1.506-.14,2.309.17,2.462,0.96a8.583,8.583,0,0,0,.181.95,10.609,10.609,0,0,0,.776,2.17,5.4,5.4,0,0,0,4.978,3.37,14.851,14.851,0,0,0,2.671-.13,5.039,5.039,0,0,0,2.66-.96,10.3,10.3,0,0,0,3.69,2.44,5.226,5.226,0,0,0,2.038.32,7.886,7.886,0,0,0,4.749-1.85,12.636,12.636,0,0,0,1.268-1.13,6.025,6.025,0,0,0,4.144,1.32c0.3-.01.509-0.01,0.714-0.02,6.358-.14,9.613-7.56,5.211-12.02-0.1-.1-0.179-0.17-0.227-0.21a0.848,0.848,0,0,0-1.419.61c0,2.18-.522,3.37-1.32,3.89a1.73,1.73,0,0,1-1.081.28l-0.149-.01c-1.593,0-3.225-1.43-4.6-3.53a10.148,10.148,0,0,0-2.9-2.98,4.634,4.634,0,0,0-2.757-.97,7.6,7.6,0,0,0-5.1,1.87q-0.273.24-.5,0.48a3.534,3.534,0,0,0-1.7-1.19,6.248,6.248,0,0,0-1.992-.33,12.411,12.411,0,0,0-4.9.9,6.941,6.941,0,0,0-1.359.76H956a9.648,9.648,0,0,0-6.747,2.3,6.158,6.158,0,0,0-1.709,2.43A0.839,0.839,0,0,0,948.659,1657.24Zm7.341-4.1h1.7a0.865,0.865,0,0,0,.6-0.23,4.2,4.2,0,0,1,1.139-.67,10.63,10.63,0,0,1,4.215-.76,4.564,4.564,0,0,1,1.409.23,1.434,1.434,0,0,1,1.141,1.43,0.853,0.853,0,0,0,1.614.37,3.57,3.57,0,0,1,.258-0.41,5.815,5.815,0,0,1,.906-1,5.892,5.892,0,0,1,4.021-1.45l0.155-.01a1.822,1.822,0,0,1,.3.07,5.064,5.064,0,0,1,1.3.63,8.422,8.422,0,0,1,2.408,2.5c1.649,2.52,3.63,4.26,5.97,4.29a3.485,3.485,0,0,0,2.229-.55,4.553,4.553,0,0,0,1.861-3.01,5.517,5.517,0,0,1-5.086,7.7c-0.208.01-.423,0.01-0.645,0.01l-0.126.01a3.477,3.477,0,0,1-1.156-.1,4.805,4.805,0,0,1-1.956-.96c-0.139-.11-0.277-0.24-0.411-0.37a0.867,0.867,0,0,0-1.276.09c-0.066.08-.2,0.24-0.406,0.45a10.038,10.038,0,0,1-1.168,1.06,6.165,6.165,0,0,1-3.7,1.48l-0.143.01a3.132,3.132,0,0,1-1.313-.23,8.4,8.4,0,0,1-3.042-2.03l-0.85-.83-1.7-1.66a0.873,0.873,0,0,0-1.2,0,0.823,0.823,0,0,0,0,1.18l1.31,1.28a3.93,3.93,0,0,1-1.68.51,14.818,14.818,0,0,1-2.267.12,0.74,0.74,0,0,0-.122-0.01,3.765,3.765,0,0,1-3.489-2.44,8.735,8.735,0,0,1-.651-1.82,7.59,7.59,0,0,1-.155-0.81c-0.374-1.94-2.029-2.58-4.3-2.38a12.859,12.859,0,0,0-1.321.2A7.953,7.953,0,0,1,956,1653.14Zm1.7,40.71a0.846,0.846,0,0,0,.85-0.83v-6.65a0.85,0.85,0,0,0-1.7,0v6.65A0.846,0.846,0,0,0,957.7,1693.85Zm4.25,0a0.846,0.846,0,0,0,.85-0.83v-6.65a0.85,0.85,0,0,0-1.7,0v6.65A0.845,0.845,0,0,0,961.95,1693.85Zm7.649-5.82H973a0.839,0.839,0,0,0,.85-0.83v-3.32a0.839,0.839,0,0,0-.85-0.83h-3.4a0.839,0.839,0,0,0-.849.83v3.32A0.839,0.839,0,0,0,969.6,1688.03Zm0.85-3.32h1.7v1.66h-1.7v-1.66Zm11.05,3.32h3.4a0.839,0.839,0,0,0,.85-0.83v-3.32a0.839,0.839,0,0,0-.85-0.83h-3.4a0.839,0.839,0,0,0-.85.83v3.32A0.839,0.839,0,0,0,981.5,1688.03Zm0.85-3.32h1.7v1.66h-1.7v-1.66Z" transform="translate(-939 -1649)"/>
</svg>
