<svg xmlns="http://www.w3.org/2000/svg" width="33" height="33" viewBox="0 0 33 33">
  <metadata><?xpacket begin="﻿" id="W5M0MpCehiHzreSzNTczkc9d"?>
<x:xmpmeta xmlns:x="adobe:ns:meta/" x:xmptk="Adobe XMP Core 5.6-c138 79.159824, 2016/09/14-01:09:01        ">
   <rdf:RDF xmlns:rdf="http://www.w3.org/1999/02/22-rdf-syntax-ns#">
      <rdf:Description rdf:about=""/>
   </rdf:RDF>
</x:xmpmeta>
                                                                                                    
                                                                                                    
                                                                                                    
                                                                                                    
                                                                                                    
                                                                                                    
                                                                                                    
                                                                                                    
                                                                                                    
                                                                                                    
                                                                                                    
                                                                                                    
                                                                                                    
                                                                                                    
                                                                                                    
                                                                                                    
                                                                                                    
                                                                                                    
                                                                                                    
                                                                                                    
                           
<?xpacket end="w"?></metadata>
<defs>
    <style>
      .cls-1 {
        fill: #fff;
        fill-rule: evenodd;
        opacity: 0.3;
      }
    </style>
  </defs>
  <path class="cls-1" d="M1120.31,665.036l-2.31-.393a13.784,13.784,0,0,0-.94-2.248l1.37-1.91a2.031,2.031,0,0,0-.22-2.626l-2.06-2.054a2,2,0,0,0-1.44-.6,2.036,2.036,0,0,0-1.18.379l-1.91,1.365a13.286,13.286,0,0,0-2.33-.958l-0.39-2.289a2.03,2.03,0,0,0-2.01-1.7h-2.9a2.048,2.048,0,0,0-2.02,1.7l-0.4,2.344a12.976,12.976,0,0,0-2.24.944l-1.89-1.364a2.039,2.039,0,0,0-2.63.22l-2.06,2.055a2.043,2.043,0,0,0-.22,2.626l1.38,1.937a13.164,13.164,0,0,0-.92,2.254l-2.29.386a2.04,2.04,0,0,0-1.7,2.013v2.9a2.04,2.04,0,0,0,1.7,2.013l2.35,0.4a12.335,12.335,0,0,0,.94,2.241l-1.36,1.889a2.031,2.031,0,0,0,.22,2.626l2.06,2.054a2.027,2.027,0,0,0,2.62.221l1.93-1.379a13.15,13.15,0,0,0,2.18.9l0.39,2.317a2.029,2.029,0,0,0,2.01,1.7h2.91a2.029,2.029,0,0,0,2.01-1.7l0.4-2.317a12.737,12.737,0,0,0,2.24-.93l1.91,1.365a2.044,2.044,0,0,0,1.19.379h0a2.037,2.037,0,0,0,1.44-.6l2.05-2.054a2.044,2.044,0,0,0,.23-2.626l-1.37-1.917a12.589,12.589,0,0,0,.93-2.247l2.32-.387a2.038,2.038,0,0,0,1.7-2.012v-2.9A2.012,2.012,0,0,0,1120.31,665.036Zm-0.16,4.915a0.177,0.177,0,0,1-.15.179l-2.89.482a0.927,0.927,0,0,0-.75.683,10.9,10.9,0,0,1-1.2,2.888,0.953,0.953,0,0,0,.04,1.014l1.71,2.4a0.2,0.2,0,0,1-.02.234l-2.06,2.054a0.18,0.18,0,0,1-.13.056,0.146,0.146,0,0,1-.1-0.035l-2.4-1.7a0.925,0.925,0,0,0-1.01-.042,10.868,10.868,0,0,1-2.89,1.2,0.919,0.919,0,0,0-.68.745l-0.49,2.9a0.176,0.176,0,0,1-.18.151h-2.9a0.176,0.176,0,0,1-.18-0.151l-0.48-2.9a0.921,0.921,0,0,0-.69-0.745,11.557,11.557,0,0,1-2.82-1.157,0.968,0.968,0,0,0-.47-0.125,0.917,0.917,0,0,0-.54.172l-2.41,1.717a0.227,0.227,0,0,1-.1.035,0.2,0.2,0,0,1-.14-0.055l-2.05-2.055a0.187,0.187,0,0,1-.02-0.234l1.7-2.379a0.963,0.963,0,0,0,.04-1.02,11.144,11.144,0,0,1-1.22-2.881,0.927,0.927,0,0,0-.74-0.683l-2.92-.5a0.177,0.177,0,0,1-.15-0.179v-2.9a0.177,0.177,0,0,1,.15-0.179l2.88-.482a0.938,0.938,0,0,0,.75-0.69,10.887,10.887,0,0,1,1.18-2.895,0.941,0.941,0,0,0-.05-1.007l-1.72-2.412a0.189,0.189,0,0,1,.02-0.235l2.06-2.054a0.169,0.169,0,0,1,.13-0.055,0.172,0.172,0,0,1,.1.034l2.38,1.7a0.94,0.94,0,0,0,1.02.041,11.048,11.048,0,0,1,2.88-1.213,0.967,0.967,0,0,0,.69-0.744l0.49-2.917a0.184,0.184,0,0,1,.18-0.151h2.9a0.176,0.176,0,0,1,.18.151l0.48,2.875a0.956,0.956,0,0,0,.69.751,11.023,11.023,0,0,1,2.96,1.214,0.926,0.926,0,0,0,1.01-.042l2.38-1.709a0.225,0.225,0,0,1,.11-0.035,0.2,0.2,0,0,1,.13.056l2.05,2.054a0.187,0.187,0,0,1,.02.234l-1.7,2.393a0.93,0.93,0,0,0-.04,1.013,10.9,10.9,0,0,1,1.2,2.888,0.908,0.908,0,0,0,.74.683l2.9,0.489a0.177,0.177,0,0,1,.15.179v2.9h-0.01Zm-14.65-8.576a7.121,7.121,0,1,0,7.12,7.121A7.124,7.124,0,0,0,1105.5,661.375Zm0,12.381a5.26,5.26,0,1,1,5.26-5.26A5.265,5.265,0,0,1,1105.5,673.756Z" transform="translate(-1089 -652)"/>
</svg>
