<svg xmlns="http://www.w3.org/2000/svg" width="32" height="32" viewBox="0 0 32 32">
  <metadata><?xpacket begin="﻿" id="W5M0MpCehiHzreSzNTczkc9d"?>
<x:xmpmeta xmlns:x="adobe:ns:meta/" x:xmptk="Adobe XMP Core 5.6-c138 79.159824, 2016/09/14-01:09:01        ">
   <rdf:RDF xmlns:rdf="http://www.w3.org/1999/02/22-rdf-syntax-ns#">
      <rdf:Description rdf:about=""/>
   </rdf:RDF>
</x:xmpmeta>
                                                                                                    
                                                                                                    
                                                                                                    
                                                                                                    
                                                                                                    
                                                                                                    
                                                                                                    
                                                                                                    
                                                                                                    
                                                                                                    
                                                                                                    
                                                                                                    
                                                                                                    
                                                                                                    
                                                                                                    
                                                                                                    
                                                                                                    
                                                                                                    
                                                                                                    
                                                                                                    
                           
<?xpacket end="w"?></metadata>
<defs>
    <style>
      .cls-1 {
        fill: #fff;
        fill-rule: evenodd;
      }
    </style>
  </defs>
  <path class="cls-1" d="M1090.89,375.578a10.265,10.265,0,0,1,.53-1.131c0.06-.1.12-0.1,0.22,0l5.91,5.9,2.79-2.8s-5.69-5.7-5.84-5.843c-0.11-.11-0.15-0.241-0.03-0.312,0.26-.151,1.1-0.5,1.1-0.5a9.708,9.708,0,0,1,4.08-.9,9.587,9.587,0,0,1,6.82,2.828,9.684,9.684,0,0,1,2.2,10.255l12.16,12.158a3.959,3.959,0,1,1-5.6,5.6l-12.16-12.158a9.758,9.758,0,0,1-3.43.627A9.659,9.659,0,0,1,1090.89,375.578Zm3.33,9.5a7.611,7.611,0,0,0,5.42,2.247,7.754,7.754,0,0,0,3.25-.715l0.62-.292,13.12,13.119a1.993,1.993,0,0,0,1.4.58,1.98,1.98,0,0,0,1.98-1.982,1.935,1.935,0,0,0-.58-1.4l-13.12-13.119,0.29-.628a7.675,7.675,0,0,0-6.95-10.915,7.813,7.813,0,0,0-1.86.226l5.35,5.349-5.59,5.6-5.36-5.35A7.724,7.724,0,0,0,1094.22,385.081Z" transform="translate(-1090 -370)"/>
</svg>
