<svg xmlns="http://www.w3.org/2000/svg" width="30" height="30" viewBox="0 0 30 30">
  <metadata><?xpacket begin="﻿" id="W5M0MpCehiHzreSzNTczkc9d"?>
<x:xmpmeta xmlns:x="adobe:ns:meta/" x:xmptk="Adobe XMP Core 5.6-c138 79.159824, 2016/09/14-01:09:01        ">
   <rdf:RDF xmlns:rdf="http://www.w3.org/1999/02/22-rdf-syntax-ns#">
      <rdf:Description rdf:about=""/>
   </rdf:RDF>
</x:xmpmeta>
                                                                                                    
                                                                                                    
                                                                                                    
                                                                                                    
                                                                                                    
                                                                                                    
                                                                                                    
                                                                                                    
                                                                                                    
                                                                                                    
                                                                                                    
                                                                                                    
                                                                                                    
                                                                                                    
                                                                                                    
                                                                                                    
                                                                                                    
                                                                                                    
                                                                                                    
                                                                                                    
                           
<?xpacket end="w"?></metadata>
<defs>
    <style>
      .cls-1 {
        fill: #ffbe4c;
        fill-rule: evenodd;
      }
    </style>
  </defs>
  <path id="Shape_3_copy" data-name="Shape 3 copy" class="cls-1" d="M1118.3,523.636V505.863c0-3-1.66-4.865-4.93-4.865h-17.21a0.622,0.622,0,0,0-.59.772l0.01,4.726h2.46v4.37h2.08v6.014h1.3v-6.014h1.95V506.5h7.82v13.513H1094.6v3.633H1092v7.365h30v-7.371h-3.7Zm-16.37-14.25h-2.42V506.5h2.42v2.89Zm-5.75,12.113h16.6V504.893h-15.94c0-.387-0.03-1.918-0.03-2.211,0-.21.19-0.246,0.62-0.246l15.94,0.007a3.458,3.458,0,0,1,3.51,3.42v17.779h-20.7V521.5h0Zm24.06,8.01h-26.58v-4.188h26.58v4.188Z" transform="translate(-1092 -501)"/>
</svg>
