<svg xmlns="http://www.w3.org/2000/svg" width="149.844" height="29.094" viewBox="0 0 149.844 29.094">
  <metadata><?xpacket begin="﻿" id="W5M0MpCehiHzreSzNTczkc9d"?>
<x:xmpmeta xmlns:x="adobe:ns:meta/" x:xmptk="Adobe XMP Core 5.6-c138 79.159824, 2016/09/14-01:09:01        ">
   <rdf:RDF xmlns:rdf="http://www.w3.org/1999/02/22-rdf-syntax-ns#">
      <rdf:Description rdf:about=""/>
   </rdf:RDF>
</x:xmpmeta>
                                                                                                    
                                                                                                    
                                                                                                    
                                                                                                    
                                                                                                    
                                                                                                    
                                                                                                    
                                                                                                    
                                                                                                    
                                                                                                    
                                                                                                    
                                                                                                    
                                                                                                    
                                                                                                    
                                                                                                    
                                                                                                    
                                                                                                    
                                                                                                    
                                                                                                    
                                                                                                    
                           
<?xpacket end="w"?></metadata>
<defs>
    <style>
      .cls-1 {
        fill: #1e88e5;
        fill-rule: evenodd;
      }
    </style>
  </defs>
  <path id="Техмаш" class="cls-1" d="M355.7,61.795v-22.6h8.68v-6h-24.36v6h8.68v22.6h7Zm10.12-2.72a10.876,10.876,0,0,0,8.28,3.2,14.927,14.927,0,0,0,4.78-.8,11.984,11.984,0,0,0,4.02-2.2l-2.56-4.84a10.5,10.5,0,0,1-5.68,2.08,5.261,5.261,0,0,1-3.1-.94,4.2,4.2,0,0,1-1.7-2.74h13a21.338,21.338,0,0,0,.16-2.16,10.233,10.233,0,0,0-2.54-7.18,8.982,8.982,0,0,0-6.98-2.78,10.278,10.278,0,0,0-7.8,3.06A11.309,11.309,0,0,0,365.824,59.075Zm7.52-13.28a2.621,2.621,0,0,1,2.06.88,3.2,3.2,0,0,1,.78,2.2h-6.16q0.679-3.08,3.32-3.08h0Zm18.8,16,2.44-4.64a10.572,10.572,0,0,0,.48-1.04h0.08l0.48,1.04,2.48,4.64h7.6l-6.48-10.2,6.6-10.4h-7.8l-2.24,4.6q-0.24.52-.64,1.36h-0.08l-0.64-1.36-2.24-4.6h-7.8l6.64,10.4-6.48,10.2h7.6Zm22,0,0.48-9.48-0.04-3.52h0.08l1.2,3.04,2.72,7.2h5.6l2.72-7.2q0.519-1.28,1.12-3.04h0.08l-0.04,3.52,0.48,9.48h6.64l-1.96-20.6h-7.96l-3.04,9.04q-0.36,1.041-.84,2.4h-0.04l-0.8-2.4-3.04-9.04h-8l-1.96,20.6h6.6Zm25.2-1.32a6.709,6.709,0,0,0,4.84,1.8,7.881,7.881,0,0,0,3.46-.8,6.857,6.857,0,0,0,2.66-2.2h0.08l-0.08,1.28v1.24h6.32V49.115a7.914,7.914,0,0,0-2.46-6.16,9.637,9.637,0,0,0-6.74-2.24,15.657,15.657,0,0,0-4.86.8,12.853,12.853,0,0,0-3.86,1.88l2.4,4.88a10.345,10.345,0,0,1,5.68-1.96q2.919,0,2.92,2.28v0.36h-0.6a22.951,22.951,0,0,0-4,.34,16.92,16.92,0,0,0-3.7,1.1,6.859,6.859,0,0,0-2.86,2.2,5.508,5.508,0,0,0-1.08,3.4A5.947,5.947,0,0,0,439.343,60.475Zm6.42-6.98a9.12,9.12,0,0,1,3.38-.58h0.64v0.56a3.663,3.663,0,0,1-1.04,2.48,3.222,3.222,0,0,1-2.48,1.16,1.988,1.988,0,0,1-1.44-.5,1.672,1.672,0,0,1-.52-1.26A1.958,1.958,0,0,1,445.763,53.495Zm44.1,8.3v-20.6h-6.52v14.8H478.7v-14.8h-6.52v14.8h-4.64v-14.8h-6.52v20.6h28.84Z" transform="translate(-340.031 -33.188)"/>
</svg>
