<svg xmlns="http://www.w3.org/2000/svg" style="display:none"><defs><style>.cls-1{fill:#ffbe4c;fill-rule:evenodd}</style><style>.cls-1{fill:#ffbe4c;fill-rule:evenodd}</style><style>.cls-1{fill:#ffbe4c;fill-rule:evenodd}</style><style>.cls-1{fill:#ffbe4c;fill-rule:evenodd}</style><style>.cls-1{fill:#ffbe4c;fill-rule:evenodd}</style><style>.cls-1{fill:#ffbe4c;fill-rule:evenodd}</style><style>.cls-1{fill:#1e88e5;fill-rule:evenodd}</style><style>.cls-1{fill:none;stroke:#fff;stroke-linejoin:round;stroke-width:2px;fill-rule:evenodd}</style><style>.cls-1{fill:#fff;fill-rule:evenodd}</style><style>.cls-1{fill:#ffbe4c;fill-rule:evenodd}</style><style>.cls-1{fill:#fff;fill-rule:evenodd;opacity:.3}</style></defs><symbol id="icon-num-01" viewBox="0 0 40 46"><path class="cls-1" d="M19.817 24.79h.312a9.072 9.072 0 0 0 6.861-2.91c3.746-4.13 3.123-11.22 3.055-11.9-.243-5.07-2.695-7.5-4.72-8.64A11 11 0 0 0 20.09 0h-.166a11.054 11.054 0 0 0-5.236 1.3c-2.043 1.14-4.535 3.57-4.778 8.68-.068.68-.691 7.77 3.056 11.9a9.033 9.033 0 0 0 6.851 2.91zm-7.309-14.57c0-.03.01-.06.01-.08.321-6.83 5.275-7.56 7.4-7.56h.116c2.628.06 7.095 1.11 7.4 7.56a.215.215 0 0 0 .009.08c.01.07.691 6.55-2.4 9.96a6.451 6.451 0 0 1-5.011 2.03h-.1a6.43 6.43 0 0 1-5-2.03c-3.095-3.4-2.432-9.9-2.424-9.96zm27.464 26.32v-.03c0-.07-.01-.15-.01-.24-.058-1.88-.185-6.29-4.408-7.7l-.1-.03a28.45 28.45 0 0 1-8.077-3.6 1.331 1.331 0 0 0-1.83.31 1.268 1.268 0 0 0 .321 1.79 30.37 30.37 0 0 0 8.886 3.98c2.267.79 2.52 3.16 2.588 5.33a1.848 1.848 0 0 0 .01.24 16.8 16.8 0 0 1-.2 2.94 39.576 39.576 0 0 1-34.325-.01 15.89 15.89 0 0 1-.2-2.94c0-.08.009-.15.009-.24.069-2.17.322-4.54 2.589-5.33a30.637 30.637 0 0 0 8.885-3.98 1.267 1.267 0 0 0 .322-1.79 1.331 1.331 0 0 0-1.83-.31 28.144 28.144 0 0 1-8.077 3.6c-.039.01-.069.02-.1.03-4.224 1.42-4.35 5.83-4.408 7.7a1.772 1.772 0 0 1-.01.24v.03a14.319 14.319 0 0 0 .5 4.32 1.3 1.3 0 0 0 .506.6c.292.19 7.29 4.55 19 4.55s18.7-4.37 19-4.55a1.353 1.353 0 0 0 .506-.6 15.047 15.047 0 0 0 .453-4.31z"/></symbol><symbol id="icon-num-02" viewBox="0 0 51 49"><path class="cls-1" d="M49.814 27.47l-10.715 4.49v-3.73a.847.847 0 0 0-1.185-.76l-11.739 4.92H23.8v-6.34a1.994 1.994 0 0 0-2.021-1.97H19.02A1.994 1.994 0 0 0 17 26.05v6.34h-3.46l-1.642-21.66a.839.839 0 0 0-.848-.77h-5.1a.839.839 0 0 0-.848.77L3.46 32.39h-.91a.837.837 0 0 0-.845.74l-1.7 14.95A.837.837 0 0 0 .85 49h49.3a.839.839 0 0 0 .85-.83V28.23a.847.847 0 0 0-1.186-.76zM18.7 26.05a.316.316 0 0 1 .32-.31h2.759a.316.316 0 0 1 .321.31v6.34h-3.4v-6.34zm-.85 8h7.65v13.29h-8.589L15.4 34.05h2.45zM6.74 11.62h3.521l1.574 20.77H5.166zM3.312 34.05H13.69l.672 5.91.839 7.38h-3.3v-5.82a.839.839 0 0 0-.849-.83h-5.1a.839.839 0 0 0-.85.83v5.82h-3.3zm3.489 13.29v-4.99h3.4v4.99h-3.4zm20.4-13.58l10.2-4.27v17.85h-2.55v-4.99a.845.845 0 0 0-.85-.83h-3.4a.845.845 0 0 0-.85.83v4.99H27.2V33.76zm4.249 13.58v-4.16h1.7v4.16h-1.7zm13.6 0h-1.7v-4.16h1.7v4.16zm4.249 0H46.75v-4.99a.846.846 0 0 0-.85-.83h-3.4a.845.845 0 0 0-.85.83v4.99H39.1V33.76l10.2-4.27v17.85zM9.66 8.24c.058-.02.174-.06.339-.12.279-.09.587-.18.913-.27a11.256 11.256 0 0 1 1.942-.36c1.506-.14 2.309.17 2.462.96a8.583 8.583 0 0 0 .181.95 10.609 10.609 0 0 0 .776 2.17 5.4 5.4 0 0 0 4.978 3.37 14.851 14.851 0 0 0 2.671-.13 5.039 5.039 0 0 0 2.66-.96 10.3 10.3 0 0 0 3.69 2.44 5.226 5.226 0 0 0 2.038.32 7.886 7.886 0 0 0 4.749-1.85 12.636 12.636 0 0 0 1.268-1.13 6.025 6.025 0 0 0 4.144 1.32c.3-.01.509-.01.714-.02 6.358-.14 9.613-7.56 5.211-12.02-.1-.1-.179-.17-.227-.21a.848.848 0 0 0-1.419.61c0 2.18-.522 3.37-1.32 3.89a1.73 1.73 0 0 1-1.081.28l-.149-.01c-1.593 0-3.225-1.43-4.6-3.53A10.148 10.148 0 0 0 36.7.96a4.634 4.634 0 0 0-2.757-.97 7.6 7.6 0 0 0-5.1 1.87q-.273.24-.5.48a3.534 3.534 0 0 0-1.7-1.19 6.248 6.248 0 0 0-1.992-.33 12.411 12.411 0 0 0-4.9.9 6.941 6.941 0 0 0-1.359.76H17a9.648 9.648 0 0 0-6.747 2.3 6.158 6.158 0 0 0-1.709 2.43.839.839 0 0 0 1.115 1.03zm7.341-4.1h1.7a.865.865 0 0 0 .6-.23 4.2 4.2 0 0 1 1.139-.67 10.63 10.63 0 0 1 4.215-.76 4.564 4.564 0 0 1 1.409.23 1.434 1.434 0 0 1 1.141 1.43.853.853 0 0 0 1.614.37 3.57 3.57 0 0 1 .258-.41 5.815 5.815 0 0 1 .906-1 5.892 5.892 0 0 1 4.021-1.45l.155-.01a1.822 1.822 0 0 1 .3.07 5.064 5.064 0 0 1 1.3.63 8.422 8.422 0 0 1 2.408 2.5c1.649 2.52 3.63 4.26 5.97 4.29a3.485 3.485 0 0 0 2.229-.55 4.553 4.553 0 0 0 1.861-3.01 5.517 5.517 0 0 1-5.086 7.7c-.208.01-.423.01-.645.01l-.126.01a3.477 3.477 0 0 1-1.156-.1 4.805 4.805 0 0 1-1.956-.96 5.6 5.6 0 0 1-.411-.37.867.867 0 0 0-1.276.09c-.066.08-.2.24-.406.45a10.038 10.038 0 0 1-1.168 1.06 6.165 6.165 0 0 1-3.7 1.48l-.143.01a3.132 3.132 0 0 1-1.313-.23 8.4 8.4 0 0 1-3.042-2.03l-.85-.83-1.7-1.66a.873.873 0 0 0-1.2 0 .823.823 0 0 0 0 1.18l1.31 1.28a3.93 3.93 0 0 1-1.68.51 14.818 14.818 0 0 1-2.267.12.74.74 0 0 0-.122-.01 3.765 3.765 0 0 1-3.489-2.44 8.735 8.735 0 0 1-.651-1.82 7.59 7.59 0 0 1-.155-.81c-.374-1.94-2.029-2.58-4.3-2.38a12.859 12.859 0 0 0-1.321.2A7.953 7.953 0 0 1 17 4.14zm1.7 40.71a.846.846 0 0 0 .85-.83v-6.65a.85.85 0 0 0-1.7 0v6.65a.846.846 0 0 0 .849.83zm4.25 0a.846.846 0 0 0 .85-.83v-6.65a.85.85 0 0 0-1.7 0v6.65a.845.845 0 0 0 .849.83zm7.649-5.82H34a.839.839 0 0 0 .85-.83v-3.32a.839.839 0 0 0-.85-.83h-3.4a.839.839 0 0 0-.849.83v3.32a.839.839 0 0 0 .849.83zm.85-3.32h1.7v1.66h-1.7v-1.66zm11.05 3.32h3.4a.839.839 0 0 0 .85-.83v-3.32a.839.839 0 0 0-.85-.83h-3.4a.839.839 0 0 0-.85.83v3.32a.839.839 0 0 0 .85.83zm.85-3.32h1.7v1.66h-1.7v-1.66z"/></symbol><symbol id="icon-num-03" viewBox="0 0 49 49"><path id="Shape_3_copy_&#x43A;&#x43E;&#x43F;&#x438;&#x44F;_2" data-name="Shape 3 copy &#x43A;&#x43E;&#x43F;&#x438;&#x44F; 2" class="cls-1" d="M1455.95 1692.97v-29.03c0-4.91-2.71-7.94-8.05-7.94h-28.11a1.013 1.013 0 0 0-.96 1.26l.02 7.72h4.02v7.14h3.4v9.82h2.12v-9.82h3.19v-7.14h12.77v22.07h-27.11v5.93H1413v12.03h49v-12.04h-6.05zm-26.74-23.27h-3.94v-4.72h3.94v4.72zm-9.39 19.78h27.12v-27.12h-26.03c0-.63-.06-3.13-.06-3.61 0-.35.32-.4 1.02-.4l26.03.01a5.635 5.635 0 0 1 5.73 5.58v29.04h-33.8v-3.5h-.01zm39.31 13.08h-43.42v-6.84h43.42v6.84z" transform="translate(-1413 -1656)"/></symbol><symbol id="icon-num-04" viewBox="0 0 50 50"><path id="Shape_1_&#x43A;&#x43E;&#x43F;&#x438;&#x44F;_2" data-name="Shape 1 &#x43A;&#x43E;&#x43F;&#x438;&#x44F; 2" class="cls-1" d="M509.441 1966.75l-3.509-.59a20.072 20.072 0 0 0-1.41-3.41l2.068-2.89a3.079 3.079 0 0 0-.335-3.98l-3.112-3.11a3.047 3.047 0 0 0-2.183-.91 3 3 0 0 0-1.786.57l-2.9 2.07a18.885 18.885 0 0 0-3.53-1.45l-.585-3.47a3.09 3.09 0 0 0-3.05-2.58h-4.4a3.09 3.09 0 0 0-3.05 2.58l-.606 3.55a20.07 20.07 0 0 0-3.394 1.43l-2.873-2.07a3.1 3.1 0 0 0-1.8-.57 3.028 3.028 0 0 0-2.183.91l-3.123 3.11a3.092 3.092 0 0 0-.334 3.98l2.089 2.93a19.54 19.54 0 0 0-1.39 3.42l-3.467.59a3.081 3.081 0 0 0-2.58 3.05v4.39a3.081 3.081 0 0 0 2.58 3.05l3.551.61a19.107 19.107 0 0 0 1.431 3.39l-2.058 2.86a3.08 3.08 0 0 0 .334 3.98l3.113 3.12a3.088 3.088 0 0 0 2.183.91 3.011 3.011 0 0 0 1.786-.58l2.935-2.09a18.828 18.828 0 0 0 3.3 1.36l.585 3.51a3.089 3.089 0 0 0 3.05 2.58h4.412a3.09 3.09 0 0 0 3.05-2.58l.595-3.51a20.551 20.551 0 0 0 3.405-1.41l2.893 2.07a3.107 3.107 0 0 0 1.8.57 3.047 3.047 0 0 0 2.183-.91l3.113-3.11a3.093 3.093 0 0 0 .334-3.98l-2.068-2.9a19.851 19.851 0 0 0 1.41-3.41l3.509-.58a3.088 3.088 0 0 0 2.58-3.05v-4.4a3.051 3.051 0 0 0-2.563-3.05zm-.24 7.45a.273.273 0 0 1-.23.27l-4.387.73a1.4 1.4 0 0 0-1.128 1.03 16.7 16.7 0 0 1-1.817 4.38 1.42 1.42 0 0 0 .063 1.54l2.579 3.63a.29.29 0 0 1-.031.36l-3.113 3.11a.271.271 0 0 1-.2.08.265.265 0 0 1-.157-.05l-3.624-2.58a1.424 1.424 0 0 0-1.536-.06 17 17 0 0 1-4.376 1.82 1.373 1.373 0 0 0-1.034 1.12l-.742 4.39a.267.267 0 0 1-.271.23h-4.4a.267.267 0 0 1-.271-.23l-.731-4.39a1.39 1.39 0 0 0-1.034-1.12 17.622 17.622 0 0 1-4.283-1.76 1.506 1.506 0 0 0-.71-.19 1.429 1.429 0 0 0-.815.26l-3.656 2.6a.255.255 0 0 1-.156.06.265.265 0 0 1-.2-.09l-3.112-3.11a.275.275 0 0 1-.032-.35l2.57-3.61a1.422 1.422 0 0 0 .062-1.54 16.581 16.581 0 0 1-1.838-4.37 1.424 1.424 0 0 0-1.128-1.03l-4.418-.76a.265.265 0 0 1-.23-.27v-4.39a.275.275 0 0 1 .23-.28l4.355-.73a1.406 1.406 0 0 0 1.139-1.04 16.677 16.677 0 0 1 1.786-4.39 1.386 1.386 0 0 0-.073-1.52l-2.6-3.66a.277.277 0 0 1 .031-.35l3.113-3.12a.271.271 0 0 1 .2-.08.265.265 0 0 1 .157.05l3.6 2.57a1.42 1.42 0 0 0 1.545.06 16.476 16.476 0 0 1 4.366-1.83 1.443 1.443 0 0 0 1.035-1.13l.752-4.42a.266.266 0 0 1 .271-.23h4.4a.267.267 0 0 1 .271.23l.731 4.35a1.4 1.4 0 0 0 1.045 1.14 17.247 17.247 0 0 1 4.481 1.84 1.423 1.423 0 0 0 1.535-.06l3.6-2.59a.318.318 0 0 1 .156-.05.287.287 0 0 1 .2.08l3.113 3.11a.29.29 0 0 1 .031.36l-2.58 3.62a1.419 1.419 0 0 0-.063 1.54 16.775 16.775 0 0 1 1.818 4.37 1.393 1.393 0 0 0 1.128 1.04l4.387.74a.266.266 0 0 1 .23.27v4.4h-.005zm-22.2-13a10.79 10.79 0 1 0 10.79 10.79 10.8 10.8 0 0 0-10.786-10.79zm0 18.76a7.97 7.97 0 1 1 7.97-7.97 7.973 7.973 0 0 1-7.966 7.97z" transform="translate(-462 -1947)"/></symbol><symbol id="icon-num-05" viewBox="0 0 40 40"><path class="cls-1" d="M38.8 27.19a4.861 4.861 0 0 0 1.2-3.32A5 5 0 0 0 38.881 21a4.387 4.387 0 0 0-1.093-5.15c-1.368-1.21-3.691-1.76-6.909-1.6a27.734 27.734 0 0 0-4.234.52h-.008c-.431.08-.887.17-1.351.27a14.182 14.182 0 0 1 1.075-4.86c1.205-3.56 1.136-6.29-.223-8.11A5.533 5.533 0 0 0 21.758 0a2.182 2.182 0 0 0-1.661.74c-.955 1.07-.843 3.07-.723 3.99-1.136 2.96-4.319 10.22-7.013 12.23-.051.04-.094.08-.137.12a8.953 8.953 0 0 0-1.687 2.46 3.606 3.606 0 0 0-1.7-.42H3.58A3.537 3.537 0 0 0 0 22.6v13.59a3.53 3.53 0 0 0 3.58 3.48h5.248a3.652 3.652 0 0 0 2.066-.63l2.022.23a89.267 89.267 0 0 0 11.47.61c1.024.08 1.988.12 2.882.12a20.169 20.169 0 0 0 4-.35c2.633-.55 4.431-1.63 5.343-3.23a4.982 4.982 0 0 0 .585-3.2 5.273 5.273 0 0 0 1.954-4.35 5.612 5.612 0 0 0-.35-1.68zM3.581 37.42a1.248 1.248 0 0 1-1.257-1.23v-13.6a1.245 1.245 0 0 1 1.257-1.22h5.248a1.24 1.24 0 0 1 1.257 1.22v13.6a1.245 1.245 0 0 1-1.257 1.22H3.58v.01zm33.016-11.21a1.11 1.11 0 0 0-.155 1.37 3.4 3.4 0 0 1 .4 1.4 3.326 3.326 0 0 1-1.618 2.89 1.123 1.123 0 0 0-.4 1.29 2.884 2.884 0 0 1-.232 2.16c-.576 1-1.858 1.72-3.8 2.12a22.81 22.81 0 0 1-6.273.18h-.121a86.81 86.81 0 0 1-11.186-.59H13.2l-.869-.1a3.5 3.5 0 0 0 .077-.74v-13.6a3.376 3.376 0 0 0-.163-1.03 6.909 6.909 0 0 1 1.6-2.87c3.864-2.98 7.641-13.03 7.8-13.46a1.029 1.029 0 0 0 .052-.56 5.109 5.109 0 0 1 .112-2.43 3.153 3.153 0 0 1 2.427 1.13c.877 1.18.843 3.29-.1 6.08-1.445 4.26-1.566 6.5-.421 7.49a1.9 1.9 0 0 0 1.875.32c.525-.11 1.025-.21 1.5-.29.034-.01.077-.01.112-.02 2.641-.56 7.374-.91 9.017.55a2.35 2.35 0 0 1 .293 3.05 1.1 1.1 0 0 0 .206 1.46 3.122 3.122 0 0 1 .956 1.95 3.056 3.056 0 0 1-1.074 2.25z"/></symbol><symbol id="icon-num-06" viewBox="0 0 47 47"><path id="Forma_1" data-name="Forma 1" class="cls-1" d="M1457.12 1962.35a23.158 23.158 0 1 0 1.88 9.12 22.967 22.967 0 0 0-1.88-9.12zm-3.75 19.51a20.5 20.5 0 0 1-7.55 7.53 20.58 20.58 0 0 1-18.38 1.14 20.273 20.273 0 0 1-10.97-11.01 20.791 20.791 0 0 1 1.13-18.38 20.6 20.6 0 0 1 7.53-7.53 20.01 20.01 0 0 1 10.33-2.78 20.214 20.214 0 0 1 10.36 2.78 20.653 20.653 0 0 1 7.55 7.53 20.694 20.694 0 0 1 0 20.72zm-16.42-10.59v-13.32a1.477 1.477 0 0 0-1.49-1.44 1.448 1.448 0 0 0-1.41 1.44v13.52a1.305 1.305 0 0 1 .05.21 1.38 1.38 0 0 0 .38 1.16l7.69 7.68a1.452 1.452 0 0 0 1.98 0 1.383 1.383 0 0 0 0-2z" transform="translate(-1412 -1948)"/></symbol><symbol id="icon-phone" viewBox="0 0 25 25"><path class="cls-1" d="M19.78 15.479a2.476 2.476 0 0 0-1.79-.818 2.546 2.546 0 0 0-1.81.813l-1.68 1.663c-.13-.074-.27-.143-.4-.211-.19-.095-.37-.185-.53-.28a18.2 18.2 0 0 1-4.36-3.96 11.077 11.077 0 0 1-1.43-2.249c.44-.4.84-.808 1.23-1.2.15-.148.3-.3.45-.449a2.421 2.421 0 0 0 0-3.654L8.01 3.692c-.16-.164-.33-.333-.49-.5-.32-.327-.65-.666-1-.982a2.488 2.488 0 0 0-1.77-.776 2.59 2.59 0 0 0-1.8.776c-.01.005-.01.005-.01.011l-1.8 1.811A3.826 3.826 0 0 0-.01 6.488a9.179 9.179 0 0 0 .68 3.918 22.8 22.8 0 0 0 4.05 6.738 24.9 24.9 0 0 0 8.3 6.479 12.885 12.885 0 0 0 4.66 1.373c.11.005.22.01.33.01a4.017 4.017 0 0 0 3.06-1.309.047.047 0 0 1 .02-.026 11.6 11.6 0 0 1 .92-.956q.345-.324.69-.681a2.607 2.607 0 0 0 .8-1.827 2.547 2.547 0 0 0-.81-1.811zm1.89 5.56c-.2.222-.41.423-.64.644a11.626 11.626 0 0 0-1.02 1.056 2.57 2.57 0 0 1-1.99.84c-.08 0-.17 0-.25-.005a11.548 11.548 0 0 1-4.13-1.236 23.393 23.393 0 0 1-7.81-6.1 21.376 21.376 0 0 1-3.82-6.331 7.541 7.541 0 0 1-.59-3.306 2.4 2.4 0 0 1 .73-1.568l1.81-1.8a1.2 1.2 0 0 1 .8-.375 1.136 1.136 0 0 1 .77.37c.01.005.01.01.02.016.32.3.63.613.95.946.17.169.34.338.51.512l1.44 1.442a1.008 1.008 0 0 1 0 1.637c-.15.153-.3.306-.45.454-.45.454-.87.877-1.33 1.289-.01.01-.02.016-.03.026a1.073 1.073 0 0 0-.27 1.2c0 .016.01.032.01.047a11.861 11.861 0 0 0 1.71 2.783l.01.005a19.381 19.381 0 0 0 4.7 4.267c.22.137.44.248.65.354.19.1.37.185.52.28a.446.446 0 0 1 .07.037 1.085 1.085 0 0 0 1.33-.232l1.81-1.806a1.187 1.187 0 0 1 .8-.4 1.061 1.061 0 0 1 .76.385c.01.005.01.005.01.01l2.92 2.91a1.046 1.046 0 0 1 0 1.649zM13.51 5.931a6.819 6.819 0 0 1 5.55 5.534.71.71 0 0 0 .7.591.935.935 0 0 0 .12-.011.7.7 0 0 0 .59-.824 8.222 8.222 0 0 0-6.71-6.7.724.724 0 0 0-.83.581.708.708 0 0 0 .58.829zm11.5 5.085A13.564 13.564 0 0 0 13.95-.01a.712.712 0 1 0-.23 1.405 12.093 12.093 0 0 1 9.88 9.854.713.713 0 0 0 .71.591.917.917 0 0 0 .12-.011.7.7 0 0 0 .58-.812z"/></symbol><symbol id="temp-icon-left-arrow" viewBox="0 0 31.494 31.494"><path d="M10.273 5.01a1.117 1.117 0 0 1 1.587 1.57l-8.047 8.047h26.554c.62 0 1.127.492 1.127 1.11 0 .62-.508 1.128-1.127 1.128H3.813l8.047 8.032c.43.444.43 1.16 0 1.587a1.112 1.112 0 0 1-1.587 0L.32 16.532a1.12 1.12 0 0 1 0-1.57l9.953-9.953z" fill="#1E201D"/></symbol><symbol id="temp-icon-right-arrow" viewBox="0 0 31.49 31.49"><path d="M21.205 5.007a1.117 1.117 0 0 0-1.587 1.57l8.047 8.048H1.11c-.618 0-1.11.493-1.11 1.112 0 .62.492 1.127 1.11 1.127h26.555l-8.047 8.032c-.43.444-.43 1.16 0 1.587.444.444 1.16.444 1.587 0l9.952-9.952a1.092 1.092 0 0 0 0-1.57l-9.952-9.95z" fill="#1E201D"/></symbol><symbol id="thumbs-icon-01" viewBox="0 0 28 28"><path id="Rectangle_31_copy_3" data-name="Rectangle 31 copy 3" class="cls-1" d="M1095 239h11.7v11.676H1095V239zm14.3 0h11.7v11.676l-11.7.041V239zm0 14.325l11.7-.041V265h-11.7v-11.676zm-14.3 0h11.7V265H1095v-11.676z" transform="translate(-1094 -238)"/></symbol><symbol id="thumbs-icon-02" viewBox="0 0 32 32"><path class="cls-1" d="M.89 5.578a10.265 10.265 0 0 1 .53-1.131c.06-.1.12-.1.22 0l5.91 5.9 2.79-2.8s-5.69-5.7-5.84-5.843c-.11-.11-.15-.241-.03-.312.26-.151 1.1-.5 1.1-.5a9.708 9.708 0 0 1 4.08-.9 9.587 9.587 0 0 1 6.82 2.828 9.684 9.684 0 0 1 2.2 10.255l12.16 12.158a3.96 3.96 0 1 1-5.6 5.6L13.07 18.675a9.758 9.758 0 0 1-3.43.627A9.659 9.659 0 0 1 .89 5.578zm3.33 9.5a7.611 7.611 0 0 0 5.42 2.247 7.754 7.754 0 0 0 3.25-.715l.62-.292 13.12 13.119a1.993 1.993 0 0 0 1.4.58 1.98 1.98 0 0 0 1.98-1.982 1.935 1.935 0 0 0-.58-1.4L16.31 13.516l.29-.628A7.675 7.675 0 0 0 9.65 1.973a7.813 7.813 0 0 0-1.86.226l5.35 5.349-5.59 5.6-5.36-5.35a7.724 7.724 0 0 0 2.03 7.283z"/></symbol><symbol id="thumbs-icon-03" viewBox="0 0 30 30"><path id="Shape_3_copy" data-name="Shape 3 copy" class="cls-1" d="M1118.3 523.636v-17.773c0-3-1.66-4.865-4.93-4.865h-17.21a.622.622 0 0 0-.59.772l.01 4.726h2.46v4.37h2.08v6.014h1.3v-6.014h1.95V506.5h7.82v13.513h-16.59v3.633h-2.6v7.365h30v-7.371h-3.7zm-16.37-14.25h-2.42V506.5h2.42v2.89zm-5.75 12.113h16.6v-16.606h-15.94c0-.387-.03-1.918-.03-2.211 0-.21.19-.246.62-.246l15.94.007a3.458 3.458 0 0 1 3.51 3.42v17.779h-20.7V521.5zm24.06 8.01h-26.58v-4.188h26.58v4.188z" transform="translate(-1092 -501)"/></symbol><symbol id="thumbs-icon-04" viewBox="0 0 33 33"><path class="cls-1" d="M31.31 13.036L29 12.643a13.784 13.784 0 0 0-.94-2.248l1.37-1.91a2.031 2.031 0 0 0-.22-2.626l-2.06-2.054a2 2 0 0 0-1.44-.6 2.036 2.036 0 0 0-1.18.379l-1.91 1.365a13.286 13.286 0 0 0-2.33-.958l-.39-2.289a2.03 2.03 0 0 0-2.01-1.7h-2.9a2.048 2.048 0 0 0-2.02 1.7l-.4 2.344a12.976 12.976 0 0 0-2.24.944L8.44 3.626a2.039 2.039 0 0 0-2.63.22L3.75 5.901a2.043 2.043 0 0 0-.22 2.626l1.38 1.937a13.164 13.164 0 0 0-.92 2.254l-2.29.386A2.04 2.04 0 0 0 0 15.117v2.9a2.04 2.04 0 0 0 1.7 2.013l2.35.4a12.335 12.335 0 0 0 .94 2.241L3.63 24.56a2.031 2.031 0 0 0 .22 2.626l2.06 2.054a2.027 2.027 0 0 0 2.62.221l1.93-1.379a13.15 13.15 0 0 0 2.18.9l.39 2.317a2.029 2.029 0 0 0 2.01 1.7h2.91a2.029 2.029 0 0 0 2.01-1.7l.4-2.317a12.737 12.737 0 0 0 2.24-.93l1.91 1.365a2.044 2.044 0 0 0 1.19.379 2.037 2.037 0 0 0 1.44-.6l2.05-2.054a2.044 2.044 0 0 0 .23-2.626l-1.37-1.917a12.589 12.589 0 0 0 .93-2.247l2.32-.387a2.038 2.038 0 0 0 1.7-2.012v-2.9a2.012 2.012 0 0 0-1.69-2.017zm-.16 4.915a.177.177 0 0 1-.15.179l-2.89.482a.927.927 0 0 0-.75.683 10.9 10.9 0 0 1-1.2 2.888.953.953 0 0 0 .04 1.014l1.71 2.4a.2.2 0 0 1-.02.234l-2.06 2.054a.18.18 0 0 1-.13.056.146.146 0 0 1-.1-.035l-2.4-1.7a.925.925 0 0 0-1.01-.042 10.868 10.868 0 0 1-2.89 1.2.919.919 0 0 0-.68.745l-.49 2.9a.176.176 0 0 1-.18.151h-2.9a.176.176 0 0 1-.18-.151l-.48-2.9a.921.921 0 0 0-.69-.745 11.557 11.557 0 0 1-2.82-1.157.968.968 0 0 0-.47-.125.917.917 0 0 0-.54.172l-2.41 1.717a.227.227 0 0 1-.1.035.2.2 0 0 1-.14-.055l-2.05-2.055a.187.187 0 0 1-.02-.234l1.7-2.379a.963.963 0 0 0 .04-1.02 11.144 11.144 0 0 1-1.22-2.881.927.927 0 0 0-.74-.683l-2.92-.5a.177.177 0 0 1-.15-.179v-2.9a.177.177 0 0 1 .15-.179l2.88-.482a.938.938 0 0 0 .75-.69 10.887 10.887 0 0 1 1.18-2.895.941.941 0 0 0-.05-1.007L5.05 7.455a.189.189 0 0 1 .02-.235l2.06-2.054a.169.169 0 0 1 .13-.055.172.172 0 0 1 .1.034l2.38 1.7a.94.94 0 0 0 1.02.041 11.048 11.048 0 0 1 2.88-1.213.967.967 0 0 0 .69-.744l.49-2.917a.184.184 0 0 1 .18-.151h2.9a.176.176 0 0 1 .18.151l.48 2.875a.956.956 0 0 0 .69.751 11.023 11.023 0 0 1 2.96 1.214.926.926 0 0 0 1.01-.042l2.38-1.709a.225.225 0 0 1 .11-.035.2.2 0 0 1 .13.056l2.05 2.054a.187.187 0 0 1 .02.234l-1.7 2.393a.93.93 0 0 0-.04 1.013 10.9 10.9 0 0 1 1.2 2.888.908.908 0 0 0 .74.683l2.9.489a.177.177 0 0 1 .15.179v2.9h-.01zM16.5 9.375a7.121 7.121 0 1 0 7.12 7.121 7.124 7.124 0 0 0-7.12-7.121zm0 12.381a5.26 5.26 0 1 1 5.26-5.26 5.265 5.265 0 0 1-5.26 5.26z"/></symbol></svg>