<svg xmlns="http://www.w3.org/2000/svg" style="display:none"><defs><style>.cls-1{fill:#1e88e5;fill-rule:evenodd}</style></defs><symbol id="icon-phone" viewBox="0 0 25 25"><path class="cls-1" d="M19.78 15.479a2.476 2.476 0 0 0-1.79-.818 2.546 2.546 0 0 0-1.81.813l-1.68 1.663c-.13-.074-.27-.143-.4-.211-.19-.095-.37-.185-.53-.28a18.2 18.2 0 0 1-4.36-3.96 11.077 11.077 0 0 1-1.43-2.249c.44-.4.84-.808 1.23-1.2.15-.148.3-.3.45-.449a2.421 2.421 0 0 0 0-3.654L8.01 3.692c-.16-.164-.33-.333-.49-.5-.32-.327-.65-.666-1-.982a2.488 2.488 0 0 0-1.77-.776 2.59 2.59 0 0 0-1.8.776c-.01.005-.01.005-.01.011l-1.8 1.811A3.826 3.826 0 0 0-.01 6.488a9.179 9.179 0 0 0 .68 3.918 22.8 22.8 0 0 0 4.05 6.738 24.9 24.9 0 0 0 8.3 6.479 12.885 12.885 0 0 0 4.66 1.373c.11.005.22.01.33.01a4.017 4.017 0 0 0 3.06-1.309.047.047 0 0 1 .02-.026 11.6 11.6 0 0 1 .92-.956q.345-.324.69-.681a2.607 2.607 0 0 0 .8-1.827 2.547 2.547 0 0 0-.81-1.811zm1.89 5.56c-.2.222-.41.423-.64.644a11.626 11.626 0 0 0-1.02 1.056 2.57 2.57 0 0 1-1.99.84c-.08 0-.17 0-.25-.005a11.548 11.548 0 0 1-4.13-1.236 23.393 23.393 0 0 1-7.81-6.1 21.376 21.376 0 0 1-3.82-6.331 7.541 7.541 0 0 1-.59-3.306 2.4 2.4 0 0 1 .73-1.568l1.81-1.8a1.2 1.2 0 0 1 .8-.375 1.136 1.136 0 0 1 .77.37c.01.005.01.01.02.016.32.3.63.613.95.946.17.169.34.338.51.512l1.44 1.442a1.008 1.008 0 0 1 0 1.637c-.15.153-.3.306-.45.454-.45.454-.87.877-1.33 1.289-.01.01-.02.016-.03.026a1.073 1.073 0 0 0-.27 1.2c0 .016.01.032.01.047a11.861 11.861 0 0 0 1.71 2.783l.01.005a19.381 19.381 0 0 0 4.7 4.267c.22.137.44.248.65.354.19.1.37.185.52.28a.446.446 0 0 1 .07.037 1.085 1.085 0 0 0 1.33-.232l1.81-1.806a1.187 1.187 0 0 1 .8-.4 1.061 1.061 0 0 1 .76.385c.01.005.01.005.01.01l2.92 2.91a1.046 1.046 0 0 1 0 1.649zM13.51 5.931a6.819 6.819 0 0 1 5.55 5.534.71.71 0 0 0 .7.591.935.935 0 0 0 .12-.011.7.7 0 0 0 .59-.824 8.222 8.222 0 0 0-6.71-6.7.724.724 0 0 0-.83.581.708.708 0 0 0 .58.829zm11.5 5.085A13.564 13.564 0 0 0 13.95-.01a.712.712 0 1 0-.23 1.405 12.093 12.093 0 0 1 9.88 9.854.713.713 0 0 0 .71.591.917.917 0 0 0 .12-.011.7.7 0 0 0 .58-.812z"/></symbol><symbol id="temp-icon-left-arrow" viewBox="0 0 31.494 31.494"><path d="M10.273 5.01a1.117 1.117 0 0 1 1.587 1.57l-8.047 8.047h26.554c.62 0 1.127.492 1.127 1.11 0 .62-.508 1.128-1.127 1.128H3.813l8.047 8.032c.43.444.43 1.16 0 1.587a1.112 1.112 0 0 1-1.587 0L.32 16.532a1.12 1.12 0 0 1 0-1.57l9.953-9.953z" fill="#1E201D"/></symbol><symbol id="temp-icon-right-arrow" viewBox="0 0 31.49 31.49"><path d="M21.205 5.007a1.117 1.117 0 0 0-1.587 1.57l8.047 8.048H1.11c-.618 0-1.11.493-1.11 1.112 0 .62.492 1.127 1.11 1.127h26.555l-8.047 8.032c-.43.444-.43 1.16 0 1.587.444.444 1.16.444 1.587 0l9.952-9.952a1.092 1.092 0 0 0 0-1.57l-9.952-9.95z" fill="#1E201D"/></symbol></svg>